<?xml version="1.0"?>
<svg xmlns="http://www.w3.org/2000/svg" width="50" height="50" viewBox="0 0 50 50">
    <path d="M 22.5 5 C 16.71 5 12 9.71 12 15.5 C 12 15.665 11.99 15.831 12 16 C 7.589 16 4 19.589 4 24 C 4 28.411 7.589 32 12 32 L 36 32 C 41.514 32 46 27.514 46 22 C 46 16.486 41.514 12 36 12 C 34.822 12 33.68675 12.19375 32.59375 12.59375 C 31.32675 8.12075 27.26 5 22.5 5 z M 25 34 C 24.74425 34 24.47675 34.08575 24.28125 34.28125 L 22.28125 36.28125 C 21.89025 36.67225 21.89025 37.32775 22.28125 37.71875 C 22.47625 37.91375 22.744 38 23 38 C 23.256 38 23.52375 37.91375 23.71875 37.71875 L 25.71875 35.71875 C 26.10975 35.32775 26.10975 34.67225 25.71875 34.28125 C 25.52325 34.08575 25.25575 34 25 34 z M 14 35 C 13.74425 35 13.47675 35.08575 13.28125 35.28125 L 11.28125 37.28125 C 10.89025 37.67225 10.89025 38.32775 11.28125 38.71875 C 11.47625 38.91375 11.744 39 12 39 C 12.256 39 12.52375 38.91375 12.71875 38.71875 L 14.71875 36.71875 C 15.10975 36.32775 15.10975 35.67225 14.71875 35.28125 C 14.52325 35.08575 14.25575 35 14 35 z M 34 35 C 33.74425 35 33.47675 35.08575 33.28125 35.28125 L 31.28125 37.28125 C 30.89025 37.67225 30.89025 38.32775 31.28125 38.71875 C 31.47625 38.91375 31.744 39 32 39 C 32.256 39 32.52375 38.91375 32.71875 38.71875 L 34.71875 36.71875 C 35.10975 36.32775 35.10975 35.67225 34.71875 35.28125 C 34.52325 35.08575 34.25575 35 34 35 z M 20 39 C 19.74425 39 19.47675 39.08575 19.28125 39.28125 L 17.28125 41.28125 C 16.89025 41.67225 16.89025 42.32775 17.28125 42.71875 C 17.47625 42.91375 17.744 43 18 43 C 18.256 43 18.52375 42.91375 18.71875 42.71875 L 20.71875 40.71875 C 21.10975 40.32775 21.10975 39.67225 20.71875 39.28125 C 20.52325 39.08575 20.25575 39 20 39 z M 9 40 C 8.74425 40 8.47675 40.08575 8.28125 40.28125 L 6.28125 42.28125 C 5.89025 42.67225 5.89025 43.32775 6.28125 43.71875 C 6.47625 43.91375 6.744 44 7 44 C 7.256 44 7.52375 43.91375 7.71875 43.71875 L 9.71875 41.71875 C 10.10975 41.32775 10.10975 40.67225 9.71875 40.28125 C 9.52325 40.08575 9.25575 40 9 40 z M 29 40 C 28.74425 40 28.47675 40.08575 28.28125 40.28125 L 26.28125 42.28125 C 25.89025 42.67225 25.89025 43.32775 26.28125 43.71875 C 26.47625 43.91375 26.744 44 27 44 C 27.256 44 27.52375 43.91375 27.71875 43.71875 L 29.71875 41.71875 C 30.10975 41.32775 30.10975 40.67225 29.71875 40.28125 C 29.52325 40.08575 29.25575 40 29 40 z"/>
</svg>
